<svg width="64" height="64" xmlns="http://www.w3.org/2000/svg"><path d="M21.477 27.621v1.23H26.4v-1.23zM17.57 25.775v1.23h1.23v-1.23zm-1.847 1.846v1.23h4.923v-1.23zm1.846 1.846v1.231h1.23v-1.23zM11.31 26.061l-.87.87 1.305 1.305-1.305 1.306.87.87 1.305-1.305 1.306 1.305.87-.87-1.305-1.306 1.305-1.305-.87-.87-1.306 1.305zM5.946 25.775v1.846H4.1v1.23h1.846v1.847h1.23v-1.846h1.847v-1.23H7.177v-1.847zM12.578 31.88c-.264 0-.537.03-.816.089-.28.056-.566.14-.863.255v.75a3.266 3.266 0 011.595-.406c.444 0 .79.103 1.033.309.247.203.37.492.37.865v.08H12.76c-.738 0-1.295.14-1.668.422-.37.282-.555.702-.555 1.258 0 .476.148.857.445 1.142.3.283.702.424 1.208.424.4 0 .739-.072 1.015-.213.277-.144.506-.366.691-.666v.75h.813v-2.818c0-.753-.176-1.313-.53-1.684-.352-.37-.886-.556-1.6-.556zm.512 2.577h.806v.18c0 .529-.136.954-.41 1.275-.27.317-.63.476-1.08.476-.326 0-.584-.084-.775-.251-.189-.17-.283-.4-.283-.688 0-.361.126-.618.379-.768.252-.15.707-.224 1.363-.224zm10.62-2.576c-.74 0-1.33.238-1.769.715-.435.473-.652 1.113-.652 1.921 0 .783.229 1.403.688 1.862.461.458 1.087.689 1.875.689.314 0 .623-.033.93-.097.305-.065.605-.16.896-.284v-.767c-.289.153-.58.27-.874.346a3.545 3.545 0 01-.904.113c-.538 0-.958-.145-1.261-.436-.3-.294-.467-.72-.502-1.279h3.73v-.396c0-.736-.194-1.316-.582-1.743-.385-.429-.91-.644-1.574-.644zm12.036 0c-.264 0-.535.029-.814.088-.28.056-.569.14-.865.255v.75a3.266 3.266 0 011.595-.406c.444 0 .79.103 1.033.309.247.203.37.492.37.865v.08h-1.137c-.738 0-1.295.14-1.668.422-.37.282-.555.702-.555 1.258 0 .476.148.857.445 1.142.3.283.704.424 1.21.424.4 0 .737-.072 1.013-.213.277-.144.506-.366.691-.666v.75h.813v-2.818c0-.753-.176-1.313-.53-1.684-.352-.37-.886-.556-1.6-.556zm22.123 0c-.264 0-.535.029-.814.088-.28.056-.568.14-.865.255v.75a3.266 3.266 0 011.595-.406c.444 0 .79.103 1.033.309.247.203.37.492.37.865v.08H58.05c-.738 0-1.295.14-1.668.422-.37.282-.555.702-.555 1.258 0 .476.148.857.445 1.142.3.283.704.424 1.21.424.4 0 .737-.072 1.013-.213.277-.144.506-.366.691-.666v.75H60v-2.818c0-.753-.176-1.313-.53-1.684-.352-.37-.886-.556-1.6-.556zM4 32v4.939h.816v-4.164l1.368 3.217h.81l1.363-3.217v4.164h.817V32H7.996L6.59 35.308 5.185 32zm11.793 0v.648h1.967v4.291h.798v-4.29h1.967V32zm11.375 0v4.939h.816v-4.164l1.368 3.217h.81l1.363-3.217v4.164h.817V32h-1.178l-1.406 3.308L28.355 32zm11.795 0v.648h1.967v4.291h.796v-4.29h1.97V32zm5.816 0v4.939h1.041l2.38-3.964v3.964h.81V32h-1.047l-2.377 3.957V32zm5.872 0v4.939h.806V35.33l.869-.883 1.75 2.492h.909l-2.13-3.029L54.742 32h-.996l-2.289 2.32V32zm-26.932.568c.4 0 .722.134.963.399.244.264.369.618.375 1.062l-2.895.004c.042-.465.199-.825.469-1.08.273-.256.635-.385 1.088-.385zm12.539 1.889h.806v.18c0 .529-.136.954-.41 1.275-.27.317-.63.476-1.08.476-.326 0-.584-.084-.775-.251-.189-.17-.283-.4-.283-.688 0-.361.126-.618.378-.768.253-.15.708-.224 1.364-.224zm22.123 0h.806v.18c0 .529-.136.954-.41 1.275-.27.317-.63.476-1.08.476-.326 0-.584-.084-.775-.251-.189-.17-.283-.4-.283-.688 0-.361.126-.618.379-.768.252-.15.707-.224 1.363-.224z" fill="#fff" fill-opacity=".801" fill-rule="evenodd"/></svg>